<?xml version="1.0" encoding="UTF-8"?>
<svg width="50px" height="100px" viewBox="0 0 50 100" xmlns="http://www.w3.org/2000/svg" xmlns:xlink="http://www.w3.org/1999/xlink" version="1.1">
 <!-- Generated by Pixelmator Pro 2.0.3 -->
 <path id="Path" d="M49.95 15.199 C50.081 10.899 48.329 6.757 45.152 3.857 41.975 0.956 37.69 -0.412 33.42 0.109 L29.01 0.679 C12.893 2.847 1.061 16.908 1.68 33.159 L2.49 43.289 C2.121 44.348 1.837 45.435 1.64 46.539 0.512 52.625 0.879 58.895 2.71 64.809 3.031 65.816 3.626 66.713 4.43 67.399 L4.54 68.739 5.54 81.109 C6.271 91.828 15.235 100.118 25.979 100.01 36.723 99.901 45.517 91.431 46.03 80.699 L46.75 68.699 46.92 65.879 C47.005 65.736 47.081 65.589 47.15 65.439 48.645 62.26 49.711 58.898 50.32 55.439 51.042 50.626 50.376 45.707 48.4 41.259 Z M42.89 80.509 C42.497 89.624 35.04 96.837 25.917 96.928 16.793 97.018 9.195 89.954 8.62 80.849 L7.62 68.729 8.05 68.729 C9.869 68.719 11.574 67.841 12.639 66.367 13.704 64.893 14.002 62.999 13.44 61.269 12.204 57.146 11.987 52.784 12.81 48.559 13.91 42.359 21.94 36.399 29.22 32.759 34.8 38.759 40.28 47.279 39.22 53.449 38.792 55.911 38.039 58.305 36.98 60.569 36.138 62.352 36.266 64.442 37.32 66.109 38.348 67.753 40.151 68.75 42.09 68.749 42.636 68.749 43.178 68.668 43.7 68.509 Z M44.31 64.139 C44.189 64.391 44.031 64.624 43.84 64.829 43.7 64.978 43.542 65.108 43.37 65.219 42.965 65.479 42.493 65.618 42.01 65.619 41.128 65.603 40.315 65.14 39.852 64.39 39.388 63.639 39.339 62.704 39.72 61.909 40.897 59.397 41.738 56.741 42.22 54.009 43.8 45.129 35.22 34.359 29.88 29.009 23.01 32.089 11.3 39.099 9.71 47.989 8.813 52.732 9.084 57.623 10.5 62.239 10.585 62.497 10.629 62.767 10.63 63.039 10.63 64.45 9.492 65.598 8.08 65.609 6.975 65.603 6.001 64.883 5.67 63.829 3.985 58.405 3.642 52.654 4.67 47.069 4.877 45.92 5.195 44.795 5.62 43.709 9.45 33.819 21.42 27.199 27.43 24.419 L28.2 20.079 C28.312 19.399 28.694 18.794 29.259 18.4 29.824 18.006 30.524 17.858 31.2 17.989 32.588 18.261 33.501 19.597 33.25 20.989 L32.63 24.449 C35.63 27.349 41.86 34.019 45.23 41.819 47.165 45.885 47.861 50.43 47.23 54.889 46.673 58.088 45.691 61.199 44.31 64.139 Z M35.97 23.429 L36.3 21.579 C36.855 18.49 34.822 15.53 31.74 14.939 31.41 14.881 31.076 14.85 30.74 14.849 27.986 14.858 25.637 16.844 25.17 19.559 L24.68 22.309 C18.55 25.309 10.07 30.509 5.19 37.909 L4.81 32.989 C4.575 25.914 6.961 19.002 11.51 13.579 16.032 8.177 22.423 4.677 29.41 3.779 L33.81 3.209 C34.301 3.148 34.796 3.118 35.29 3.119 38.389 3.12 41.354 4.384 43.5 6.619 45.693 8.877 46.885 11.922 46.81 15.069 L45.6 35.749 C42.886 31.277 39.654 27.142 35.97 23.429 Z" fill="#000000" fill-opacity="1" stroke="none"/>
</svg>
